<?xml version="1.0" standalone="no"?>
<!DOCTYPE svg PUBLIC "-//W3C//DTD SVG 20010904//EN"
 "http://www.w3.org/TR/2001/REC-SVG-20010904/DTD/svg10.dtd">
<svg version="1.0" xmlns="http://www.w3.org/2000/svg"
 width="1024.000000pt" height="1024.000000pt" viewBox="0 0 1024.000000 1024.000000"
 preserveAspectRatio="xMidYMid meet">
<metadata>
Created by potrace 1.14, written by Peter Selinger 2001-2017
</metadata>
<g transform="translate(0.000000,1024.000000) scale(0.100000,-0.100000)"
fill="#000000" stroke="none">
<path d="M4370 8750 c-265 -27 -539 -105 -773 -221 -377 -186 -632 -392 -882
-714 -176 -225 -326 -558 -385 -854 -11 -52 -24 -99 -29 -104 -13 -13 -78 35
-179 136 -125 123 -222 258 -307 426 -19 38 -40 73 -47 77 -7 5 -40 -22 -90
-75 -128 -135 -233 -281 -332 -463 -47 -87 -47 -87 -27 -105 12 -10 21 -25 21
-34 0 -8 14 -37 31 -62 74 -113 230 -188 507 -245 163 -34 158 -39 -70 -77
-192 -32 -357 -73 -461 -114 -43 -17 -83 -31 -90 -31 -7 0 -26 -13 -42 -30
-24 -25 -29 -39 -33 -102 -4 -61 2 -97 32 -218 20 -80 39 -176 43 -215 3 -38
12 -79 19 -90 8 -11 14 -28 14 -38 0 -28 23 -30 107 -7 296 80 499 197 717
414 58 58 106 99 106 91 0 -8 -11 -49 -25 -92 -49 -157 -144 -281 -284 -371
-213 -138 -253 -232 -169 -402 37 -76 137 -181 215 -226 32 -18 77 -59 113
-102 34 -40 65 -72 69 -72 16 0 86 64 176 162 138 149 251 331 310 501 15 42
31 77 34 77 4 0 42 -51 86 -112 43 -62 98 -138 121 -168 l43 -55 -60 -150
c-74 -183 -115 -338 -134 -504 -35 -296 -9 -557 78 -796 137 -379 377 -674
657 -812 183 -90 343 -123 512 -104 51 6 109 15 128 21 52 15 58 13 65 -22 21
-97 115 -385 175 -535 139 -345 305 -640 550 -972 105 -143 139 -177 224 -222
52 -28 73 -34 138 -36 70 -2 84 1 140 29 35 18 99 62 143 99 135 114 424 416
559 584 129 162 331 456 426 620 59 103 212 413 259 525 17 41 35 80 39 85 4
6 70 52 147 104 447 301 823 657 1321 1251 120 143 225 280 431 565 328 453
614 1044 733 1517 35 137 37 181 10 225 -34 56 -68 67 -195 59 -60 -4 -162
-14 -225 -22 -162 -20 -151 -22 -199 45 -63 90 -143 156 -256 212 -200 98
-369 106 -644 33 -294 -79 -727 -308 -1000 -528 -45 -37 -85 -65 -88 -62 -3 3
2 47 10 98 34 205 30 384 -14 599 -35 179 -123 401 -222 564 -24 39 -33 61
-25 66 18 11 1 95 -32 157 -50 94 -163 214 -341 364 -75 63 -71 61 -192 83
-75 14 -103 25 -179 71 -132 80 -243 130 -427 190 -183 61 -355 98 -518 114
-121 11 -419 11 -533 0z m650 -220 c166 -21 407 -78 499 -118 l36 -15 -105
-13 c-696 -80 -1580 -471 -2592 -1146 -98 -65 -181 -118 -184 -118 -13 0 7 84
37 159 64 160 201 358 372 537 324 339 774 600 1181 684 81 17 184 32 301 44
65 7 363 -3 455 -14z m526 -325 c153 -53 280 -98 282 -100 7 -6 -372 -474
-385 -474 -12 -1 -564 186 -571 194 -6 6 372 474 384 474 6 1 136 -42 290 -94z
m870 -524 c109 -71 177 -162 221 -296 22 -68 26 -98 27 -205 0 -91 -4 -140
-17 -182 -9 -31 -17 -73 -17 -95 -1 -35 -7 -44 -96 -124 -52 -48 -120 -100
-152 -117 -98 -52 -255 -100 -500 -153 -131 -28 -304 -66 -387 -85 -181 -42
-372 -75 -645 -114 -428 -60 -555 -62 -850 -15 -335 53 -413 88 -606 277 -140
138 -180 192 -154 208 8 6 79 37 158 71 552 235 1235 452 2092 665 268 67 836
201 856 203 6 1 37 -16 70 -38z m2050 -875 c76 -39 157 -111 152 -134 -2 -8
-72 -37 -178 -72 -220 -72 -255 -87 -413 -166 -71 -35 -130 -64 -133 -64 -2 0
-4 35 -4 78 0 192 86 322 255 381 49 18 77 21 155 18 88 -3 102 -7 166 -41z
m-1851 -173 c-11 -75 -21 -91 -87 -133 -99 -63 -285 -155 -383 -189 -513 -179
-1180 -303 -1605 -300 -80 1 -158 5 -175 9 l-30 8 30 1 c27 1 28 3 13 15 -24
18 -23 34 5 57 l22 18 -40 2 c-22 1 28 8 110 15 858 77 1499 230 1985 473 74
37 141 68 149 69 10 2 12 -8 6 -45z m975 -50 c55 -32 63 -166 19 -310 l-20
-63 -92 -48 c-186 -100 -262 -149 -338 -220 l-77 -72 -47 10 c-92 21 -145 66
-145 124 0 42 50 144 104 214 65 83 179 192 271 257 91 65 119 81 190 106 63
23 99 24 135 2z m1576 -160 c-26 -333 -117 -571 -260 -675 -47 -34 -66 -35
-132 -4 -70 33 -155 123 -203 216 -74 142 -89 277 -41 387 21 50 24 52 93 77
145 51 320 83 471 85 l79 1 -7 -87z m-841 -125 c2 -2 73 -153 158 -337 l155
-333 -21 -62 c-22 -67 -153 -327 -225 -449 -67 -112 -159 -231 -249 -322 -134
-135 -443 -430 -453 -433 -6 -2 -7 4 -4 15 6 15 4 16 -7 6 -23 -22 -27 -14
-16 35 18 88 12 384 -11 514 -24 130 -77 305 -127 415 -35 75 -129 219 -187
287 l-33 38 80 77 c263 253 619 494 808 546 44 13 121 14 132 3z m-2067 -378
c267 -28 515 -117 733 -262 118 -78 314 -272 387 -383 150 -227 217 -445 217
-710 0 -364 -135 -670 -413 -936 -524 -504 -1371 -571 -1993 -157 -118 78
-314 272 -388 383 -292 444 -292 976 0 1420 74 111 270 305 388 383 311 208
695 301 1069 262z m-1613 -145 c32 -9 74 -25 92 -36 l32 -20 -76 -92 c-340
-409 -472 -887 -379 -1379 14 -76 11 -80 -41 -48 -43 26 -90 92 -162 231 -132
253 -155 237 -217 -148 -16 -105 -17 -113 0 -137 16 -26 16 -26 -9 -36 -15 -6
-29 -10 -33 -10 -4 0 -27 -39 -51 -86 -106 -207 -295 -392 -445 -434 -181 -50
-276 155 -276 600 0 663 256 1127 770 1394 331 172 622 246 795 201z m-520
-1966 c68 -17 116 -66 155 -156 30 -70 34 -88 34 -168 -1 -240 -156 -375 -429
-375 -151 0 -294 49 -364 125 -66 72 -65 146 3 250 69 106 177 192 331 265
148 71 188 79 270 59z m438 -598 c166 -113 417 -221 665 -286 368 -97 803
-104 1166 -20 38 9 70 14 73 12 2 -3 -43 -103 -100 -223 -358 -755 -634 -1122
-917 -1220 -219 -77 -379 -11 -526 217 -159 245 -282 682 -382 1357 -16 105
-27 192 -25 192 2 0 23 -13 46 -29z"/>
<path d="M5490 7966 c0 -3 9 -10 20 -16 11 -6 20 -8 20 -6 0 3 -9 10 -20 16
-11 6 -20 8 -20 6z"/>
<path d="M5561 7924 c0 -11 3 -14 6 -6 3 7 2 16 -1 19 -3 4 -6 -2 -5 -13z"/>
<path d="M5989 7477 c-104 -30 -199 -112 -247 -215 -23 -49 -27 -70 -27 -152
0 -87 3 -101 32 -161 39 -80 111 -150 191 -187 49 -23 70 -27 152 -27 87 0
101 3 161 32 80 39 150 111 187 191 23 49 27 70 27 152 0 82 -4 103 -27 152
-37 79 -108 152 -183 189 -74 36 -189 48 -266 26z m244 -61 c65 -31 140 -108
170 -174 34 -73 31 -198 -6 -274 -35 -72 -93 -130 -165 -165 -49 -24 -69 -28
-142 -28 -71 0 -94 4 -140 26 -70 33 -136 99 -169 169 -35 75 -37 201 -4 273
82 177 288 256 456 173z"/>
<path d="M6025 7346 c-42 -18 -93 -79 -101 -121 -11 -60 4 -106 50 -151 72
-72 160 -72 232 0 67 67 72 154 11 223 -52 60 -125 78 -192 49z"/>
<path d="M4625 7220 c-158 -51 -275 -213 -275 -380 0 -216 184 -400 400 -400
169 0 330 118 380 279 97 310 -195 600 -505 501z m271 -54 c77 -35 145 -103
181 -180 24 -52 28 -74 28 -146 0 -72 -4 -94 -28 -146 -36 -77 -104 -145 -182
-181 -51 -24 -73 -28 -145 -28 -72 0 -94 4 -145 28 -78 36 -146 104 -182 181
-24 52 -28 74 -28 146 0 72 4 94 28 145 86 183 293 263 473 181z"/>
<path d="M4670 7078 c-132 -67 -132 -249 0 -315 24 -13 60 -23 80 -23 20 0 56
10 80 23 132 66 132 248 0 315 -24 12 -60 22 -80 22 -20 0 -56 -10 -80 -22z"/>
<path d="M5692 6777 c-45 -72 -129 -128 -223 -148 -42 -9 -69 -8 -141 6 -49 9
-92 14 -95 11 -12 -11 48 -64 108 -96 70 -37 152 -49 201 -30 73 29 143 122
169 223 15 63 7 78 -19 34z"/>
<path d="M6590 5069 c-89 -37 -127 -146 -77 -219 39 -58 71 -75 142 -75 49 0
70 5 92 21 96 71 97 186 1 257 -31 23 -120 32 -158 16z m110 -109 c11 -11 20
-27 20 -35 0 -23 -37 -55 -65 -55 -28 0 -65 32 -65 55 0 23 37 55 65 55 14 0
34 -9 45 -20z"/>
</g>
</svg>
